<svg width="24" height="24" viewBox="0 0 24 24" fill="none" xmlns="http://www.w3.org/2000/svg">
<path d="M18.2066 15.4915C17.9352 15.4401 17.6737 15.6185 17.6224 15.8898C17.571 16.1611 17.7494 16.4227 18.0207 16.474L18.2066 15.4915ZM8.08116 16.2781C8.35497 16.2422 8.54785 15.9912 8.51199 15.7174C8.47613 15.4436 8.22509 15.2507 7.95129 15.2866L8.08116 16.2781ZM6.19005 4.73792C5.91391 4.73792 5.69005 4.96177 5.69005 5.23792C5.69005 5.51406 5.91391 5.73792 6.19005 5.73792V4.73792ZM12.1911 15.4989C12.1911 15.7751 12.4149 15.9989 12.6911 15.9989C12.9672 15.9989 13.1911 15.7751 13.1911 15.4989H12.1911ZM12.3453 16.0267C12.1459 16.2177 12.1389 16.5342 12.3299 16.7337C12.5208 16.9331 12.8373 16.9401 13.0368 16.7491L12.3453 16.0267ZM15.823 14.0821C16.0225 13.8912 16.0294 13.5747 15.8384 13.3752C15.6475 13.1757 15.331 13.1688 15.1315 13.3597L15.823 14.0821ZM10.2507 13.3597C10.0512 13.1688 9.73468 13.1757 9.54373 13.3752C9.35278 13.5747 9.3597 13.8912 9.55918 14.0821L10.2507 13.3597ZM12.3453 16.7491C12.5448 16.9401 12.8613 16.9331 13.0523 16.7337C13.2432 16.5342 13.2363 16.2177 13.0368 16.0267L12.3453 16.7491ZM6.19005 5.73792C6.46619 5.73792 6.69005 5.51406 6.69005 5.23792C6.69005 4.96177 6.46619 4.73792 6.19005 4.73792V5.73792ZM4.05578 4.73792C3.77963 4.73792 3.55578 4.96177 3.55578 5.23792C3.55578 5.51406 3.77963 5.73792 4.05578 5.73792V4.73792ZM18.0207 16.474C19.0144 16.662 19.7963 16.8938 20.3169 17.1427C20.5784 17.2676 20.748 17.3847 20.8454 17.482C20.9416 17.578 20.9324 17.6172 20.9324 17.6033H21.9324C21.9324 17.2625 21.7616 16.9836 21.5519 16.7743C21.3436 16.5663 21.0632 16.391 20.7481 16.2404C20.1157 15.9382 19.2381 15.6866 18.2066 15.4915L18.0207 16.474ZM20.9324 17.6033C20.9324 17.5918 20.9396 17.6199 20.8745 17.6938C20.8066 17.7708 20.6837 17.869 20.4846 17.9783C20.0868 18.1966 19.4782 18.4091 18.6833 18.5936C17.1015 18.9609 14.8913 19.1927 12.4324 19.1927L12.4324 20.1927C14.9442 20.1927 17.2339 19.9567 18.9095 19.5677C19.7433 19.3742 20.4526 19.1365 20.9657 18.8549C21.2221 18.7142 21.4528 18.55 21.6247 18.355C21.7993 18.1568 21.9324 17.9032 21.9324 17.6033H20.9324ZM12.4324 19.1927C9.97359 19.1927 7.76332 18.9609 6.18154 18.5936C5.38666 18.4091 4.77802 18.1966 4.38028 17.9783C4.18119 17.869 4.05827 17.7708 3.99037 17.6938C3.92526 17.6199 3.93243 17.5918 3.93243 17.6033H2.93243C2.93243 17.9032 3.06553 18.1568 3.2402 18.355C3.41207 18.55 3.64278 18.7142 3.89912 18.8549C4.41223 19.1365 5.12161 19.3742 5.9554 19.5677C7.63099 19.9567 9.92071 20.1927 12.4324 20.1927L12.4324 19.1927ZM3.93243 17.6033C3.93243 17.6205 3.9213 17.5587 4.0833 17.4242C4.24077 17.2934 4.50159 17.1472 4.87953 17.0002C5.63062 16.708 6.73228 16.4548 8.08116 16.2781L7.95129 15.2866C6.56392 15.4683 5.37368 15.7349 4.51695 16.0682C4.09097 16.234 3.71889 16.427 3.44444 16.6549C3.17451 16.879 2.93243 17.1954 2.93243 17.6033H3.93243ZM6.19005 5.73792C9.52515 5.73792 12.1911 8.32056 12.1911 11.4609H13.1911C13.1911 7.72753 10.0358 4.73792 6.19005 4.73792V5.73792ZM12.1911 11.4609V15.4989H13.1911V11.4609H12.1911ZM13.0368 16.7491L15.823 14.0821L15.1315 13.3597L12.3453 16.0267L13.0368 16.7491ZM9.55918 14.0821L12.3453 16.7491L13.0368 16.0267L10.2507 13.3597L9.55918 14.0821ZM6.19005 4.73792L4.05578 4.73792V5.73792L6.19005 5.73792V4.73792Z" fill="#1A93DA"/>
</svg>
